ply
format ascii 1.0
Created by Open Asset Import Library - http://assimp.sf.net (v3.0.1262)
element vertex 420
property float x
property float y
property float z
property float nx
property float ny
property float nz
property float s
property float t
element face 140
property list uint uint vertex_indices
end_header
596.93 -185.2 500 0 0 0.1 59.693 -18.52
458.853 424.357 500 0 0 0.1 45.8853 42.4357
138.077 -609.557 500 0 0 0.1 13.8077 -60.9557
138.077 -609.557 500 0 0 0.1 13.8077 -60.9557
458.853 424.357 500 0 0 0.1 45.8853 42.4357
-138.077 609.557 500 0 0 0.1 -13.8077 60.9557
138.077 -609.557 500 0 0 0.1 13.8077 -60.9557
-138.077 609.557 500 0 0 0.1 -13.8077 60.9557
-458.853 -424.357 500 0 0 0.1 -45.8853 -42.4357
-458.853 -424.357 500 0 0 0.1 -45.8853 -42.4357
-138.077 609.557 500 0 0 0.1 -13.8077 60.9557
-596.93 185.2 500 0 0 0.1 -59.693 18.52
-410.089 -413.311 500 0.022092 -0.097529 0 130 5
-410.089 -413.311 1800 0.022092 -0.097529 0 -0 5
-458.853 -424.357 500 0.022092 -0.097529 0 130 0
-458.853 -424.357 500 0.022092 -0.097529 0 130 0
-410.089 -413.311 1800 0.022092 -0.097529 0 -0 5
-458.853 -424.357 1800 0.022092 -0.097529 0 -0 0
-596.93 185.2 1800 0 0 0.1 -0 0
-458.853 -424.357 1800 0 0 0.1 62.5 -0
-548.166 196.246 1800 0 0 0.1 -0 5
-548.166 196.246 1800 0 0 0.1 -0 5
-458.853 -424.357 1800 0 0 0.1 62.5 -0
-410.089 -413.311 1800 0 0 0.1 62.5 5
-596.93 185.2 500 -0.022092 0.097529 0 45 0
-596.93 185.2 1800 -0.022092 0.097529 0 175 0
-548.166 196.246 500 -0.022092 0.097529 0 45 5
-548.166 196.246 500 -0.022092 0.097529 0 45 5
-596.93 185.2 1800 -0.022092 0.097529 0 175 0
-548.166 196.246 1800 -0.022092 0.097529 0 175 5
-562.982 148.492 500 -0.073417 -0.067897 0 130 5
-562.982 148.492 1800 -0.073417 -0.067897 0 -0 5
-596.93 185.2 500 -0.073417 -0.067897 0 130 0
-596.93 185.2 500 -0.073417 -0.067897 0 130 0
-562.982 148.492 1800 -0.073417 -0.067897 0 -0 5
-596.93 185.2 1800 -0.073417 -0.067897 0 -0 -0
-138.077 609.557 1800 0 0 0.1 -0 0
-596.93 185.2 1800 0 0 0.1 62.5 -0
-104.129 572.849 1800 0 0 0.1 -0 5
-104.129 572.849 1800 0 0 0.1 -0 5
-596.93 185.2 1800 0 0 0.1 62.5 -0
-562.982 148.492 1800 0 0 0.1 62.5 5
-138.077 609.557 500 0.073417 0.067897 0 45 0
-138.077 609.557 1800 0.073417 0.067897 0 175 0
-104.129 572.849 500 0.073417 0.067897 0 45 5
-104.129 572.849 500 0.073417 0.067897 0 45 5
-138.077 609.557 1800 0.073417 0.067897 0 175 0
-104.129 572.849 1800 0.073417 0.067897 0 175 5
548.166 -196.246 500 -0.097529 -0.022092 -0 -42.5 -31.25
548.166 -196.246 1800 -0.097529 -0.022092 -0 87.5 -31.25
410.089 413.311 500 -0.097529 -0.022092 -0 -42.5 31.25
410.089 413.311 500 -0.097529 -0.022092 -0 -42.5 31.25
548.166 -196.246 1800 -0.097529 -0.022092 -0 87.5 -31.25
410.089 413.311 1800 -0.097529 -0.022092 -0 87.5 31.25
444.037 376.602 500 -0.029632 -0.095509 0 42.5 31.25
444.037 376.602 1800 -0.029632 -0.095509 0 -87.5 31.25
-152.893 561.803 500 -0.029632 -0.095509 0 42.5 -31.25
-152.893 561.803 500 -0.029632 -0.095509 0 42.5 -31.25
444.037 376.602 1800 -0.029632 -0.095509 0 -87.5 31.25
-152.893 561.803 1800 -0.029632 -0.095509 0 -87.5 -31.25
-548.166 196.246 500 0.097529 0.022092 -0 42.5 31.25
-548.166 196.246 1800 0.097529 0.022092 -0 -87.5 31.25
-410.089 -413.311 500 0.097529 0.022092 -0 42.5 -31.25
-410.089 -413.311 500 0.097529 0.022092 -0 42.5 -31.25
-548.166 196.246 1800 0.097529 0.022092 -0 -87.5 31.25
-410.089 -413.311 1800 0.097529 0.022092 -0 -87.5 -31.25
104.129 -572.849 500 -0.067897 0.073417 0 -42.5 -31.25
104.129 -572.849 1800 -0.067897 0.073417 0 87.5 -31.25
562.982 -148.492 500 -0.067897 0.073417 0 -42.5 31.25
562.982 -148.492 500 -0.067897 0.073417 0 -42.5 31.25
104.129 -572.849 1800 -0.067897 0.073417 0 87.5 -31.25
562.982 -148.492 1800 -0.067897 0.073417 0 87.5 31.25
-138.077 609.557 500 -0.067897 0.073417 0 0 45
-596.93 185.2 500 -0.067897 0.073417 0 62.5 45
-138.077 609.557 1800 -0.067897 0.073417 0 -0 175
-138.077 609.557 1800 -0.067897 0.073417 0 -0 175
-596.93 185.2 500 -0.067897 0.073417 0 62.5 45
-596.93 185.2 1800 -0.067897 0.073417 0 62.5 175
-596.93 185.2 500 -0.097529 -0.022092 0 0 45
-458.853 -424.357 500 -0.097529 -0.022092 0 62.5 45
-596.93 185.2 1800 -0.097529 -0.022092 0 -0 175
-596.93 185.2 1800 -0.097529 -0.022092 0 -0 175
-458.853 -424.357 500 -0.097529 -0.022092 0 62.5 45
-458.853 -424.357 1800 -0.097529 -0.022092 0 62.5 175
-458.853 -424.357 500 -0.029632 -0.095509 0 0 45
138.077 -609.557 500 -0.029632 -0.095509 0 62.5 45
-458.853 -424.357 1800 -0.029632 -0.095509 0 0 175
-458.853 -424.357 1800 -0.029632 -0.095509 0 0 175
138.077 -609.557 500 -0.029632 -0.095509 0 62.5 45
138.077 -609.557 1800 -0.029632 -0.095509 0 62.5 175
138.077 -609.557 500 0.067897 -0.073417 0 0 45
596.93 -185.2 500 0.067897 -0.073417 0 62.5 45
138.077 -609.557 1800 0.067897 -0.073417 0 0 175
138.077 -609.557 1800 0.067897 -0.073417 0 0 175
596.93 -185.2 500 0.067897 -0.073417 0 62.5 45
596.93 -185.2 1800 0.067897 -0.073417 0 62.5 175
458.853 424.357 500 0.029632 0.095509 0 0 45
-138.077 609.557 500 0.029632 0.095509 0 62.5 45
458.853 424.357 1800 0.029632 0.095509 0 0 175
458.853 424.357 1800 0.029632 0.095509 0 0 175
-138.077 609.557 500 0.029632 0.095509 0 62.5 45
-138.077 609.557 1800 0.029632 0.095509 0 62.5 175
596.93 -185.2 500 0.097529 0.022092 0 0 45
458.853 424.357 500 0.097529 0.022092 0 62.5 45
596.93 -185.2 1800 0.097529 0.022092 0 0 175
596.93 -185.2 1800 0.097529 0.022092 0 0 175
458.853 424.357 500 0.097529 0.022092 0 62.5 45
458.853 424.357 1800 0.097529 0.022092 0 62.5 175
410.089 413.311 500 -0.022092 0.097529 0 130 5
410.089 413.311 1800 -0.022092 0.097529 0 0 5
458.853 424.357 500 -0.022092 0.097529 0 130 -0
458.853 424.357 500 -0.022092 0.097529 0 130 -0
410.089 413.311 1800 -0.022092 0.097529 0 0 5
458.853 424.357 1800 -0.022092 0.097529 0 -0 0
596.93 -185.2 1800 0 0 0.1 0 0
458.853 424.357 1800 0 0 0.1 62.5 -0
548.166 -196.246 1800 0 0 0.1 0 5
548.166 -196.246 1800 0 0 0.1 0 5
458.853 424.357 1800 0 0 0.1 62.5 -0
410.089 413.311 1800 0 0 0.1 62.5 5
596.93 -185.2 500 0.022092 -0.097529 0 45 0
596.93 -185.2 1800 0.022092 -0.097529 0 175 0
548.166 -196.246 500 0.022092 -0.097529 0 45 5
548.166 -196.246 500 0.022092 -0.097529 0 45 5
596.93 -185.2 1800 0.022092 -0.097529 0 175 0
548.166 -196.246 1800 0.022092 -0.097529 0 175 5
-104.129 572.849 500 0.067897 -0.073417 0 42.5 31.25
-104.129 572.849 1800 0.067897 -0.073417 0 -87.5 31.25
-562.982 148.492 500 0.067897 -0.073417 0 42.5 -31.25
-562.982 148.492 500 0.067897 -0.073417 0 42.5 -31.25
-104.129 572.849 1800 0.067897 -0.073417 0 -87.5 31.25
-562.982 148.492 1800 0.067897 -0.073417 0 -87.5 -31.25
-444.037 -376.602 500 0.029632 0.095509 -0 -42.5 -31.25
-444.037 -376.602 1800 0.029632 0.095509 -0 87.5 -31.25
152.893 -561.803 500 0.029632 0.095509 -0 -42.5 31.25
152.893 -561.803 500 0.029632 0.095509 -0 -42.5 31.25
-444.037 -376.602 1800 0.029632 0.095509 -0 87.5 -31.25
152.893 -561.803 1800 0.029632 0.095509 -0 87.5 31.25
152.893 -561.803 500 0.095509 -0.029632 0 130 5
152.893 -561.803 1800 0.095509 -0.029632 0 -0 5
138.077 -609.557 500 0.095509 -0.029632 0 130 0
138.077 -609.557 500 0.095509 -0.029632 0 130 0
152.893 -561.803 1800 0.095509 -0.029632 0 -0 5
138.077 -609.557 1800 0.095509 -0.029632 0 -0 0
-458.853 -424.357 1800 0 0 0.1 0 0
138.077 -609.557 1800 0 0 0.1 62.5 0
-444.037 -376.602 1800 0 0 0.1 0 5
-444.037 -376.602 1800 0 0 0.1 0 5
138.077 -609.557 1800 0 0 0.1 62.5 0
152.893 -561.803 1800 0 0 0.1 62.5 5
-458.853 -424.357 500 -0.095509 0.029632 0 45 0
-458.853 -424.357 1800 -0.095509 0.029632 0 175 0
-444.037 -376.602 500 -0.095509 0.029632 0 45 5
-444.037 -376.602 500 -0.095509 0.029632 0 45 5
-458.853 -424.357 1800 -0.095509 0.029632 0 175 0
-444.037 -376.602 1800 -0.095509 0.029632 0 175 5
-152.893 561.803 500 -0.095509 0.029632 0 130 5
-152.893 561.803 1800 -0.095509 0.029632 0 0 5
-138.077 609.557 500 -0.095509 0.029632 0 130 -0
-138.077 609.557 500 -0.095509 0.029632 0 130 -0
-152.893 561.803 1800 -0.095509 0.029632 0 0 5
-138.077 609.557 1800 -0.095509 0.029632 0 -0 -0
458.853 424.357 1800 0 0 0.1 0 0
-138.077 609.557 1800 0 0 0.1 62.5 -0
444.037 376.602 1800 0 0 0.1 -0 5
444.037 376.602 1800 0 0 0.1 -0 5
-138.077 609.557 1800 0 0 0.1 62.5 -0
-152.893 561.803 1800 0 0 0.1 62.5 5
458.853 424.357 500 0.095509 -0.029632 0 45 0
458.853 424.357 1800 0.095509 -0.029632 0 175 0
444.037 376.602 500 0.095509 -0.029632 0 45 5
444.037 376.602 500 0.095509 -0.029632 0 45 5
458.853 424.357 1800 0.095509 -0.029632 0 175 0
444.037 376.602 1800 0.095509 -0.029632 0 175 5
562.982 -148.492 500 0.073417 0.067897 0 130 5
562.982 -148.492 1800 0.073417 0.067897 0 0 5
596.93 -185.2 500 0.073417 0.067897 0 130 0
596.93 -185.2 500 0.073417 0.067897 0 130 0
562.982 -148.492 1800 0.073417 0.067897 0 0 5
596.93 -185.2 1800 0.073417 0.067897 0 -0 0
138.077 -609.557 1800 0 0 0.1 0 -0
596.93 -185.2 1800 0 0 0.1 62.5 0
104.129 -572.849 1800 0 0 0.1 0 5
104.129 -572.849 1800 0 0 0.1 0 5
596.93 -185.2 1800 0 0 0.1 62.5 0
562.982 -148.492 1800 0 0 0.1 62.5 5
138.077 -609.557 500 -0.073417 -0.067897 0 45 0
138.077 -609.557 1800 -0.073417 -0.067897 0 175 -0
104.129 -572.849 500 -0.073417 -0.067897 0 45 5
104.129 -572.849 500 -0.073417 -0.067897 0 45 5
138.077 -609.557 1800 -0.073417 -0.067897 0 175 -0
104.129 -572.849 1800 -0.073417 -0.067897 0 175 5
500 -150 50 0 0 0.1 -50 15
379.904 358.013 50 0 0 0.1 -37.9904 -35.8013
120.096 -508.013 50 0 0 0.1 -12.0096 50.8013
120.096 -508.013 50 0 0 0.1 -12.0096 50.8013
379.904 358.013 50 0 0 0.1 -37.9904 -35.8013
-120.096 508.013 50 0 0 0.1 12.0096 -50.8013
120.096 -508.013 50 0 0 0.1 -12.0096 50.8013
-120.096 508.013 50 0 0 0.1 12.0096 -50.8013
-379.904 -358.013 50 0 0 0.1 37.9904 35.8013
-379.904 -358.013 50 0 0 0.1 37.9904 35.8013
-120.096 508.013 50 0 0 0.1 12.0096 -50.8013
-500 150 50 0 0 0.1 50 -15
-379.904 -358.013 50 -0.028735 -0.095783 0 0 0
120.096 -508.013 50 -0.028735 -0.095783 0 52.2015 0
-379.904 -358.013 500 -0.028735 -0.095783 0 0 45
-379.904 -358.013 500 -0.028735 -0.095783 0 0 45
120.096 -508.013 50 -0.028735 -0.095783 0 52.2015 0
120.096 -508.013 500 -0.028735 -0.095783 0 52.2015 45
-500 150 50 -0.097318 -0.023006 0 0 0
-379.904 -358.013 50 -0.097318 -0.023006 0 52.2015 0
-500 150 500 -0.097318 -0.023006 0 -0 45
-500 150 500 -0.097318 -0.023006 0 -0 45
-379.904 -358.013 50 -0.097318 -0.023006 0 52.2015 0
-379.904 -358.013 500 -0.097318 -0.023006 0 52.2015 45
-120.096 508.013 50 -0.068583 0.072776 0 0 0
-500 150 50 -0.068583 0.072776 0 52.2015 0
-120.096 508.013 500 -0.068583 0.072776 0 0 45
-120.096 508.013 500 -0.068583 0.072776 0 0 45
-500 150 50 -0.068583 0.072776 0 52.2015 0
-500 150 500 -0.068583 0.072776 0 52.2015 45
379.904 358.013 50 0.028735 0.095783 0 0 0
-120.096 508.013 50 0.028735 0.095783 0 52.2015 0
379.904 358.013 500 0.028735 0.095783 0 0 45
379.904 358.013 500 0.028735 0.095783 0 0 45
-120.096 508.013 50 0.028735 0.095783 0 52.2015 0
-120.096 508.013 500 0.028735 0.095783 0 52.2015 45
500 -150 50 0.097318 0.023006 0 0 0
379.904 358.013 50 0.097318 0.023006 0 52.2015 0
500 -150 500 0.097318 0.023006 0 0 45
500 -150 500 0.097318 0.023006 0 0 45
379.904 358.013 50 0.097318 0.023006 0 52.2015 0
379.904 358.013 500 0.097318 0.023006 0 52.2015 45
120.096 -508.013 50 0.068583 -0.072776 0 0 0
500 -150 50 0.068583 -0.072776 0 52.2015 0
120.096 -508.013 500 0.068583 -0.072776 0 0 45
120.096 -508.013 500 0.068583 -0.072776 0 0 45
500 -150 50 0.068583 -0.072776 0 52.2015 0
500 -150 500 0.068583 -0.072776 0 52.2015 45
120.096 -508.013 500 0.095783 -0.028735 0 -0 0
120.096 -508.013 50 0.095783 -0.028735 0 45 0
134.464 -460.121 500 0.095783 -0.028735 0 -0 5
134.464 -460.121 500 0.095783 -0.028735 0 -0 5
120.096 -508.013 50 0.095783 -0.028735 0 45 0
134.464 -460.121 50 0.095783 -0.028735 0 45 5
-379.904 -358.013 500 0 0 0.1 0 0
120.096 -508.013 500 0 0 0.1 52.2015 0
-365.536 -310.121 500 0 0 0.1 0 5
-365.536 -310.121 500 0 0 0.1 0 5
120.096 -508.013 500 0 0 0.1 52.2015 0
134.464 -460.121 500 0 0 0.1 52.2015 5
-379.904 -358.013 50 -0.095783 0.028735 0 0 0
-379.904 -358.013 500 -0.095783 0.028735 0 45 0
-365.536 -310.121 50 -0.095783 0.028735 0 0 5
-365.536 -310.121 50 -0.095783 0.028735 0 0 5
-379.904 -358.013 500 -0.095783 0.028735 0 45 0
-365.536 -310.121 500 -0.095783 0.028735 0 45 5
120.096 -508.013 50 0 0 -0.1 0 0
-379.904 -358.013 50 0 0 -0.1 52.2015 0
134.464 -460.121 50 0 0 -0.1 0 5
134.464 -460.121 50 0 0 -0.1 0 5
-379.904 -358.013 50 0 0 -0.1 52.2015 0
-365.536 -310.121 50 0 0 -0.1 52.2015 5
-379.904 -358.013 500 0.023006 -0.097318 0 -0 0
-379.904 -358.013 50 0.023006 -0.097318 0 45 0
-331.245 -346.51 500 0.023006 -0.097318 0 -0 5
-331.245 -346.51 500 0.023006 -0.097318 0 -0 5
-379.904 -358.013 50 0.023006 -0.097318 0 45 0
-331.245 -346.51 50 0.023006 -0.097318 0 45 5
-500 150 500 0 0 0.1 -0 0
-379.904 -358.013 500 0 0 0.1 52.2015 0
-451.341 161.503 500 0 0 0.1 0 5
-451.341 161.503 500 0 0 0.1 0 5
-379.904 -358.013 500 0 0 0.1 52.2015 0
-331.245 -346.51 500 0 0 0.1 52.2015 5
-500 150 50 -0.023006 0.097318 0 0 0
-500 150 500 -0.023006 0.097318 0 45 0
-451.341 161.503 50 -0.023006 0.097318 0 0 5
-451.341 161.503 50 -0.023006 0.097318 0 0 5
-500 150 500 -0.023006 0.097318 0 45 0
-451.341 161.503 500 -0.023006 0.097318 0 45 5
-379.904 -358.013 50 0 0 -0.1 0 0
-500 150 50 0 0 -0.1 52.2015 0
-331.245 -346.51 50 0 0 -0.1 -0 5
-331.245 -346.51 50 0 0 -0.1 -0 5
-500 150 50 0 0 -0.1 52.2015 0
-451.341 161.503 50 0 0 -0.1 52.2015 5
-500 150 500 -0.072776 -0.068583 0 -0 -0
-500 150 50 -0.072776 -0.068583 0 45 0
-465.709 113.612 500 -0.072776 -0.068583 0 0 5
-465.709 113.612 500 -0.072776 -0.068583 0 0 5
-500 150 50 -0.072776 -0.068583 0 45 0
-465.709 113.612 50 -0.072776 -0.068583 0 45 5
-120.096 508.013 500 0 0 0.1 0 0
-500 150 500 0 0 0.1 52.2015 0
-85.8048 471.625 500 0 0 0.1 0 5
-85.8048 471.625 500 0 0 0.1 0 5
-500 150 500 0 0 0.1 52.2015 0
-465.709 113.612 500 0 0 0.1 52.2015 5
-120.096 508.013 50 0.072776 0.068583 0 0 0
-120.096 508.013 500 0.072776 0.068583 0 45 0
-85.8048 471.625 50 0.072776 0.068583 0 0 5
-85.8048 471.625 50 0.072776 0.068583 0 0 5
-120.096 508.013 500 0.072776 0.068583 0 45 0
-85.8048 471.625 500 0.072776 0.068583 0 45 5
-500 150 50 0 0 -0.1 -0 0
-120.096 508.013 50 0 0 -0.1 52.2015 -0
-465.709 113.612 50 0 0 -0.1 -0 5
-465.709 113.612 50 0 0 -0.1 -0 5
-120.096 508.013 50 0 0 -0.1 52.2015 -0
-85.8048 471.625 50 0 0 -0.1 52.2015 5
-120.096 508.013 500 -0.095783 0.028735 0 0 0
-120.096 508.013 50 -0.095783 0.028735 0 45 -0
-134.464 460.121 500 -0.095783 0.028735 0 -0 5
-134.464 460.121 500 -0.095783 0.028735 0 -0 5
-120.096 508.013 50 -0.095783 0.028735 0 45 -0
-134.464 460.121 50 -0.095783 0.028735 0 45 5
379.904 358.013 500 0 0 0.1 0 0
-120.096 508.013 500 0 0 0.1 52.2015 0
365.536 310.121 500 0 0 0.1 -0 5
365.536 310.121 500 0 0 0.1 -0 5
-120.096 508.013 500 0 0 0.1 52.2015 0
-134.464 460.121 500 0 0 0.1 52.2015 5
379.904 358.013 50 0.095783 -0.028735 0 0 0
379.904 358.013 500 0.095783 -0.028735 0 45 0
365.536 310.121 50 0.095783 -0.028735 0 0 5
365.536 310.121 50 0.095783 -0.028735 0 0 5
379.904 358.013 500 0.095783 -0.028735 0 45 0
365.536 310.121 500 0.095783 -0.028735 0 45 5
-120.096 508.013 50 -0 0 -0.1 0 -0
379.904 358.013 50 -0 0 -0.1 52.2015 0
-134.464 460.121 50 -0 0 -0.1 -0 5
-134.464 460.121 50 -0 0 -0.1 -0 5
379.904 358.013 50 -0 0 -0.1 52.2015 0
365.536 310.121 50 -0 0 -0.1 52.2015 5
379.904 358.013 500 -0.023006 0.097318 0 -0 0
379.904 358.013 50 -0.023006 0.097318 0 45 -0
331.245 346.51 500 -0.023006 0.097318 0 -0 5
331.245 346.51 500 -0.023006 0.097318 0 -0 5
379.904 358.013 50 -0.023006 0.097318 0 45 -0
331.245 346.51 50 -0.023006 0.097318 0 45 5
500 -150 500 0 0 0.1 0 0
379.904 358.013 500 0 0 0.1 52.2015 -0
451.341 -161.503 500 0 0 0.1 -0 5
451.341 -161.503 500 0 0 0.1 -0 5
379.904 358.013 500 0 0 0.1 52.2015 -0
331.245 346.51 500 0 0 0.1 52.2015 5
500 -150 50 0.023006 -0.097318 0 0 0
500 -150 500 0.023006 -0.097318 0 45 0
451.341 -161.503 50 0.023006 -0.097318 0 0 5
451.341 -161.503 50 0.023006 -0.097318 0 0 5
500 -150 500 0.023006 -0.097318 0 45 0
451.341 -161.503 500 0.023006 -0.097318 0 45 5
379.904 358.013 50 -0 0 -0.1 0 0
500 -150 50 -0 0 -0.1 52.2015 0
331.245 346.51 50 -0 0 -0.1 -0 5
331.245 346.51 50 -0 0 -0.1 -0 5
500 -150 50 -0 0 -0.1 52.2015 0
451.341 -161.503 50 -0 0 -0.1 52.2015 5
500 -150 500 0.072776 0.068583 0 -0 0
500 -150 50 0.072776 0.068583 0 45 0
465.709 -113.612 500 0.072776 0.068583 0 0 5
465.709 -113.612 500 0.072776 0.068583 0 0 5
500 -150 50 0.072776 0.068583 0 45 0
465.709 -113.612 50 0.072776 0.068583 0 45 5
120.096 -508.013 500 0 -0 0.1 0 0
500 -150 500 0 -0 0.1 52.2015 0
85.8048 -471.625 500 0 -0 0.1 -0 5
85.8048 -471.625 500 0 -0 0.1 -0 5
500 -150 500 0 -0 0.1 52.2015 0
465.709 -113.612 500 0 -0 0.1 52.2015 5
120.096 -508.013 50 -0.072776 -0.068583 0 0 0
120.096 -508.013 500 -0.072776 -0.068583 0 45 0
85.8048 -471.625 50 -0.072776 -0.068583 0 0 5
85.8048 -471.625 50 -0.072776 -0.068583 0 0 5
120.096 -508.013 500 -0.072776 -0.068583 0 45 0
85.8048 -471.625 500 -0.072776 -0.068583 0 45 5
500 -150 50 0 0 -0.1 -0 0
120.096 -508.013 50 0 0 -0.1 52.2015 0
465.709 -113.612 50 0 0 -0.1 -0 5
465.709 -113.612 50 0 0 -0.1 -0 5
120.096 -508.013 50 0 0 -0.1 52.2015 0
85.8048 -471.625 50 0 0 -0.1 52.2015 5
331.245 346.51 500 -0.097318 -0.023006 0 22.5 26.1008
331.245 346.51 50 -0.097318 -0.023006 0 -22.5 26.1008
451.341 -161.503 500 -0.097318 -0.023006 0 22.5 -26.1008
451.341 -161.503 500 -0.097318 -0.023006 0 22.5 -26.1008
331.245 346.51 50 -0.097318 -0.023006 0 -22.5 26.1008
451.341 -161.503 50 -0.097318 -0.023006 0 -22.5 -26.1008
465.709 -113.612 500 -0.068583 0.072776 0 22.5 26.1008
465.709 -113.612 50 -0.068583 0.072776 0 -22.5 26.1008
85.8048 -471.625 500 -0.068583 0.072776 0 22.5 -26.1008
85.8048 -471.625 500 -0.068583 0.072776 0 22.5 -26.1008
465.709 -113.612 50 -0.068583 0.072776 0 -22.5 26.1008
85.8048 -471.625 50 -0.068583 0.072776 0 -22.5 -26.1008
134.464 -460.121 500 0.028735 0.095783 0 22.5 26.1008
134.464 -460.121 50 0.028735 0.095783 0 -22.5 26.1008
-365.536 -310.121 500 0.028735 0.095783 0 22.5 -26.1008
-365.536 -310.121 500 0.028735 0.095783 0 22.5 -26.1008
134.464 -460.121 50 0.028735 0.095783 0 -22.5 26.1008
-365.536 -310.121 50 0.028735 0.095783 0 -22.5 -26.1008
-331.245 -346.51 500 0.097318 0.023006 0 -22.5 -26.1008
-331.245 -346.51 50 0.097318 0.023006 0 22.5 -26.1008
-451.341 161.503 500 0.097318 0.023006 0 -22.5 26.1008
-451.341 161.503 500 0.097318 0.023006 0 -22.5 26.1008
-331.245 -346.51 50 0.097318 0.023006 0 22.5 -26.1008
-451.341 161.503 50 0.097318 0.023006 0 22.5 26.1008
-465.709 113.612 500 0.068583 -0.072776 0 -22.5 -26.1008
-465.709 113.612 50 0.068583 -0.072776 0 22.5 -26.1008
-85.8048 471.625 500 0.068583 -0.072776 0 -22.5 26.1008
-85.8048 471.625 500 0.068583 -0.072776 0 -22.5 26.1008
-465.709 113.612 50 0.068583 -0.072776 0 22.5 -26.1008
-85.8048 471.625 50 0.068583 -0.072776 0 22.5 26.1008
-134.464 460.121 500 -0.028735 -0.095783 -0 -22.5 -26.1008
-134.464 460.121 50 -0.028735 -0.095783 -0 22.5 -26.1008
365.536 310.121 500 -0.028735 -0.095783 -0 -22.5 26.1008
365.536 310.121 500 -0.028735 -0.095783 -0 -22.5 26.1008
-134.464 460.121 50 -0.028735 -0.095783 -0 22.5 -26.1008
365.536 310.121 50 -0.028735 -0.095783 -0 22.5 26.1008
3 0 1 2
3 3 4 5
3 6 7 8
3 9 10 11
3 12 13 14
3 15 16 17
3 18 19 20
3 21 22 23
3 24 25 26
3 27 28 29
3 30 31 32
3 33 34 35
3 36 37 38
3 39 40 41
3 42 43 44
3 45 46 47
3 48 49 50
3 51 52 53
3 54 55 56
3 57 58 59
3 60 61 62
3 63 64 65
3 66 67 68
3 69 70 71
3 72 73 74
3 75 76 77
3 78 79 80
3 81 82 83
3 84 85 86
3 87 88 89
3 90 91 92
3 93 94 95
3 96 97 98
3 99 100 101
3 102 103 104
3 105 106 107
3 108 109 110
3 111 112 113
3 114 115 116
3 117 118 119
3 120 121 122
3 123 124 125
3 126 127 128
3 129 130 131
3 132 133 134
3 135 136 137
3 138 139 140
3 141 142 143
3 144 145 146
3 147 148 149
3 150 151 152
3 153 154 155
3 156 157 158
3 159 160 161
3 162 163 164
3 165 166 167
3 168 169 170
3 171 172 173
3 174 175 176
3 177 178 179
3 180 181 182
3 183 184 185
3 186 187 188
3 189 190 191
3 192 193 194
3 195 196 197
3 198 199 200
3 201 202 203
3 204 205 206
3 207 208 209
3 210 211 212
3 213 214 215
3 216 217 218
3 219 220 221
3 222 223 224
3 225 226 227
3 228 229 230
3 231 232 233
3 234 235 236
3 237 238 239
3 240 241 242
3 243 244 245
3 246 247 248
3 249 250 251
3 252 253 254
3 255 256 257
3 258 259 260
3 261 262 263
3 264 265 266
3 267 268 269
3 270 271 272
3 273 274 275
3 276 277 278
3 279 280 281
3 282 283 284
3 285 286 287
3 288 289 290
3 291 292 293
3 294 295 296
3 297 298 299
3 300 301 302
3 303 304 305
3 306 307 308
3 309 310 311
3 312 313 314
3 315 316 317
3 318 319 320
3 321 322 323
3 324 325 326
3 327 328 329
3 330 331 332
3 333 334 335
3 336 337 338
3 339 340 341
3 342 343 344
3 345 346 347
3 348 349 350
3 351 352 353
3 354 355 356
3 357 358 359
3 360 361 362
3 363 364 365
3 366 367 368
3 369 370 371
3 372 373 374
3 375 376 377
3 378 379 380
3 381 382 383
3 384 385 386
3 387 388 389
3 390 391 392
3 393 394 395
3 396 397 398
3 399 400 401
3 402 403 404
3 405 406 407
3 408 409 410
3 411 412 413
3 414 415 416
3 417 418 419
